
<svg width="64" height="64" viewBox="0 0 64 64" fill="none" xmlns="http://www.w3.org/2000/svg">
<rect width="64" height="64" rx="12" fill="url(#paint0_linear_1_2)"/>
<path d="M32 14C26.4772 14 22 18.4772 22 24V26H42V24C42 18.4772 37.5228 14 32 14Z" fill="white" fill-opacity="0.8"/>
<path d="M20 28C18.8954 28 18 28.8954 18 30V46C18 48.2091 19.7909 50 22 50H42C44.2091 50 46 48.2091 46 46V30C46 28.8954 45.1046 28 44 28H20Z" fill="white"/>
<rect x="28" y="32" width="8" height="4" rx="1" fill="#FFD700"/>
<circle cx="26" cy="20" r="2" fill="#FF8C00"/>
<circle cx="38" cy="20" r="2" fill="#FF8C00"/>
<defs>
<linearGradient id="paint0_linear_1_2" x1="0" y1="0" x2="64" y2="64" gradientUnits="userSpaceOnUse">
<stop stop-color="#FFA500"/>
<stop offset="1" stop-color="#FF4500"/>
</linearGradient>
</defs>
</svg>
